<?xml version="1.0" encoding="iso-8859-1"?>
<!-- Uploaded to: SVG Repo, www.svgrepo.com, Generator: SVG Repo Mixer Tools -->
<svg fill="#000000" height="800px" width="800px" version="1.1" id="Layer_1" xmlns="http://www.w3.org/2000/svg" xmlns:xlink="http://www.w3.org/1999/xlink" 
	 viewBox="0 0 299.423 299.423" xml:space="preserve">
<g>
	<g>
		<path d="M176.779,152.09c-0.134-0.134-16.415-12.261-22.043-29.815V5.025c0-2.747-2.278-5.025-5.025-5.025
			s-5.025,2.278-5.025,5.025v117.116c-6.767,17.755-22.043,29.882-22.177,30.016l-1.943,1.541v135.407l2.211,1.474
			c1.541,1.005,9.38,6.164,14.941,7.303c3.953,1.005,7.973,1.541,11.859,1.541c3.886,0,7.571-0.536,10.988-1.541
			c6.834-1.206,15.142-6.7,16.08-7.37l2.211-1.474V156.043v-2.479L176.779,152.09z M158.555,288.1l-0.402,0.067l-0.335,0.134
			c-5.092,1.608-11.39,1.608-17.755-0.067l-0.335-0.067c-2.077-0.402-6.097-2.546-9.179-4.422v-125.29
			c3.752-3.283,12.194-11.39,18.76-22.847c0.067,0,0.201,0,0.268,0c6.298,11.457,15.209,19.631,19.162,22.914v125.156h0.067
			C165.657,285.554,161.37,287.698,158.555,288.1z"/>
	</g>
</g>
</svg>